<svg width="48" height="48" viewBox="0 0 48 48" fill="none" xmlns="http://www.w3.org/2000/svg">
<rect x="2" y="6" width="38" height="30" rx="4" fill="#012DE4"/>
<path fill-rule="evenodd" clip-rule="evenodd" d="M21 18.6667L6 12V15.3333L21 22L36 15.3333V12L21 18.6667Z" fill="white"/>
<path d="M28 36C28 30.4772 32.4772 26 38 26C43.5228 26 48 30.4772 48 36C48 41.5228 43.5228 46 38 46C32.4772 46 28 41.5228 28 36Z" fill="#E6EBFF"/>
<path d="M37.1114 39L36.1723 40.1697L37.231 41.0196L38.182 40.0507L37.1114 39ZM44.0706 34.0507L45.1212 32.9801L42.9801 30.8788L41.9294 31.9493L44.0706 34.0507ZM32.0609 36.8689L36.1723 40.1697L38.0505 37.8303L33.9391 34.5295L32.0609 36.8689ZM38.182 40.0507L44.0706 34.0507L41.9294 31.9493L36.0409 37.9493L38.182 40.0507Z" fill="#0132FD"/>
</svg>
