<svg width="48" height="48" viewBox="0 0 48 48" fill="none" xmlns="http://www.w3.org/2000/svg">
<path d="M2 19.2188C2 17.0096 3.79086 15.2188 6 15.2188H34C36.2091 15.2188 38 17.0096 38 19.2188V35.2188C38 37.4279 36.2091 39.2188 34 39.2188H6C3.79086 39.2188 2 37.4279 2 35.2188V19.2188Z" fill="#3C3C3C"/>
<path d="M16 4.75C12.5482 4.75 9.75 7.54822 9.75 11V15C9.75 18.4518 12.5482 21.25 16 21.25H24C27.4518 21.25 30.25 18.4518 30.25 15V11C30.25 7.54822 27.4518 4.75 24 4.75H16Z" stroke="#3C3C3C" stroke-width="4.5"/>
<path d="M19 25H22V33.5C22 34.3284 21.3284 35 20.5 35C19.6716 35 19 34.3284 19 33.5V25Z" fill="white"/>
<rect x="17" y="22" width="7" height="5" rx="2.5" fill="white"/>
<path d="M26 36C26 30.4772 30.4772 26 36 26C41.5228 26 46 30.4772 46 36C46 41.5228 41.5228 46 36 46C30.4772 46 26 41.5228 26 36Z" fill="#E6EBFF"/>
<path d="M35.1114 39L34.1723 40.1697L35.231 41.0196L36.182 40.0507L35.1114 39ZM42.0706 34.0507L43.1212 32.9801L40.9801 30.8788L39.9294 31.9493L42.0706 34.0507ZM30.0609 36.8689L34.1723 40.1697L36.0505 37.8303L31.9391 34.5295L30.0609 36.8689ZM36.182 40.0507L42.0706 34.0507L39.9294 31.9493L34.0409 37.9493L36.182 40.0507Z" fill="#0132FD"/>
</svg>
