<svg width="16" height="16" viewBox="0 0 16 16" fill="none" xmlns="http://www.w3.org/2000/svg">
<path d="M7.34782 2.66666H10.6522C13.2375 2.66666 15.3333 4.90528 15.3333 7.66666C15.3333 10.4281 13.2375 12.6667 10.6522 12.6667H7.34782C4.7625 12.6667 2.66666 10.4281 2.66666 7.66666C2.66666 4.90528 4.7625 2.66666 7.34782 2.66666Z" stroke="white" stroke-miterlimit="10"/>
<path d="M10.5293 10.6667C12.0754 10.6667 13.3332 9.32087 13.3332 7.66666C13.3332 6.01245 12.0754 4.66666 10.5293 4.66666H7.47048C5.92439 4.66666 4.66655 6.01245 4.66655 7.66666C4.66655 9.32087 5.92439 10.6667 7.47048 10.6667H10.5293Z" stroke="white" stroke-miterlimit="10"/>
<path d="M10.2728 8.66663C10.8575 8.66663 11.3334 8.21799 11.3334 7.66663C11.3334 7.11526 10.8575 6.66663 10.2728 6.66663H7.7273C7.14251 6.66663 6.66669 7.11526 6.66669 7.66663C6.66669 8.21799 7.14251 8.66663 7.7273 8.66663H10.2728Z" stroke="white" stroke-miterlimit="10"/>
<path d="M8 2.66666L0.666667 2.66666" stroke="white" stroke-miterlimit="10"/>
<path d="M8 4.66666L0.666667 4.66666" stroke="white" stroke-miterlimit="10"/>
<path d="M8 6.66666L0.666667 6.66666" stroke="white" stroke-miterlimit="10"/>
</svg>
