<svg width="32" height="32" viewBox="0 0 32 32" fill="none" xmlns="http://www.w3.org/2000/svg">
<path d="M12.0799 10.25C12.7702 10.25 13.3299 9.69036 13.3299 9C13.3299 8.30964 12.7702 7.75 12.0799 7.75V10.25ZM24.25 19.8889C24.25 19.1985 23.6904 18.6389 23 18.6389C22.3096 18.6389 21.75 19.1985 21.75 19.8889H24.25ZM12.0799 7.75H9V10.25H12.0799V7.75ZM4.75 12V23H7.25V12H4.75ZM9 27.25H20V24.75H9V27.25ZM24.25 23V19.8889H21.75V23H24.25ZM20 27.25C22.3472 27.25 24.25 25.3472 24.25 23H21.75C21.75 23.9665 20.9665 24.75 20 24.75V27.25ZM4.75 23C4.75 25.3472 6.65279 27.25 9 27.25V24.75C8.0335 24.75 7.25 23.9665 7.25 23H4.75ZM9 7.75C6.65279 7.75 4.75 9.65279 4.75 12H7.25C7.25 11.0335 8.0335 10.25 9 10.25V7.75Z" fill="#3C3C3C"/>
<path d="M12 15.8857V20H15.6571L25.8846 10.1513C27.0464 9.03255 27.0639 7.17819 25.9235 6.03774C24.798 4.91233 22.9734 4.91233 21.848 6.03774L12 15.8857Z" stroke="#3C3C3C" stroke-width="2.5"/>
<path d="M21 7L25 11" stroke="#3C3C3C" stroke-width="2.5"/>
</svg>
