<svg width="24" height="24" viewBox="0 0 24 24" fill="none" xmlns="http://www.w3.org/2000/svg">
<path d="M0 0H24V21H0V0Z" fill="#111111"/>
<path d="M12.4677 15C11.7963 15 11.1851 14.875 10.6341 14.625C10.0918 14.3667 9.62267 14.025 9.22669 13.6C8.83931 13.175 8.53802 12.6958 8.32281 12.1625C8.1076 11.6208 8 11.0667 8 10.5C8 9.90833 8.11191 9.34583 8.33572 8.8125C8.55954 8.27083 8.87374 7.79167 9.27834 7.375C9.68293 6.95 10.1564 6.61667 10.6987 6.375C11.2496 6.125 11.8522 6 12.5065 6C13.1693 6 13.7719 6.12917 14.3142 6.3875C14.8651 6.64583 15.3343 6.99167 15.7217 7.425C16.1176 7.85833 16.4189 8.34583 16.6255 8.8875C16.8407 9.42083 16.9483 9.96667 16.9483 10.525C16.9483 11.0917 16.8407 11.6417 16.6255 12.175C16.4189 12.7 16.1263 13.1667 15.7475 13.575L17 14.9375H15.3214L14.7791 14.3625C14.4519 14.5625 14.0904 14.7208 13.6944 14.8375C13.307 14.9458 12.8981 15 12.4677 15ZM12.4806 13.475C12.7131 13.475 12.9283 13.45 13.1263 13.4C13.3329 13.3417 13.5222 13.2667 13.6944 13.175L12.2999 11.65H13.9785L14.6112 12.3375C14.7834 12.0708 14.9168 11.7792 15.0115 11.4625C15.1062 11.1458 15.1535 10.825 15.1535 10.5C15.1535 9.98333 15.0459 9.5 14.8307 9.05C14.6155 8.6 14.3056 8.23333 13.901 7.95C13.505 7.66667 13.0316 7.525 12.4806 7.525C11.9039 7.525 11.4175 7.67083 11.0215 7.9625C10.6255 8.25417 10.3242 8.62917 10.1176 9.0875C9.91105 9.54583 9.80775 10.0167 9.80775 10.5C9.80775 11.0167 9.91105 11.5 10.1176 11.95C10.3329 12.4 10.6385 12.7667 11.0344 13.05C11.439 13.3333 11.9211 13.475 12.4806 13.475Z" fill="white"/>
<path d="M4 20H0V24L4 20Z" fill="#111111"/>
</svg>
