<svg width="16" height="16" viewBox="0 0 16 16" fill="none" xmlns="http://www.w3.org/2000/svg">
<path d="M7.34781 2.66602H10.6522C13.2375 2.66602 15.3333 4.90464 15.3333 7.66602C15.3333 10.4275 13.2375 12.666 10.6522 12.666H7.34781C4.76249 12.666 2.66665 10.4275 2.66665 7.66602C2.66665 4.90464 4.76249 2.66602 7.34781 2.66602Z" stroke="#0132FD" stroke-miterlimit="10"/>
<path d="M10.5293 10.666C12.0754 10.666 13.3333 9.32022 13.3333 7.66602C13.3333 6.01181 12.0754 4.66602 10.5293 4.66602H7.47051C5.92442 4.66602 4.66658 6.01181 4.66658 7.66602C4.66658 9.32022 5.92442 10.666 7.47051 10.666H10.5293Z" stroke="#0132FD" stroke-miterlimit="10"/>
<path d="M10.2728 8.66602C10.8576 8.66602 11.3334 8.21738 11.3334 7.66602C11.3334 7.11465 10.8576 6.66602 10.2728 6.66602H7.72731C7.14253 6.66602 6.66671 7.11465 6.66671 7.66602C6.66671 8.21738 7.14253 8.66602 7.72731 8.66602H10.2728Z" stroke="#0132FD" stroke-miterlimit="10"/>
<path d="M8 2.66602L0.666667 2.66602" stroke="#0132FD" stroke-miterlimit="10"/>
<path d="M8 4.66602L0.666667 4.66602" stroke="#0132FD" stroke-miterlimit="10"/>
<path d="M8 6.66602L0.666667 6.66602" stroke="#0132FD" stroke-miterlimit="10"/>
</svg>
