<svg width="48" height="48" viewBox="0 0 48 48" fill="none" xmlns="http://www.w3.org/2000/svg">
<path d="M6 21C6 18.7909 7.79086 17 10 17H38C40.2091 17 42 18.7909 42 21V37C42 39.2091 40.2091 41 38 41H10C7.79086 41 6 39.2091 6 37V21Z" fill="#3C3C3C"/>
<path d="M20 6.75C16.5482 6.75 13.75 9.54822 13.75 13V17C13.75 20.4518 16.5482 23.25 20 23.25H28C31.4518 23.25 34.25 20.4518 34.25 17V13C34.25 9.54822 31.4518 6.75 28 6.75H20Z" stroke="#3C3C3C" stroke-width="4.5"/>
<path d="M23 27H26V35.5C26 36.3284 25.3284 37 24.5 37C23.6716 37 23 36.3284 23 35.5V27Z" fill="white"/>
<rect x="21" y="24" width="7" height="5" rx="2.5" fill="white"/>
</svg>
