<svg width="32" height="32" viewBox="0 0 32 32" fill="none" xmlns="http://www.w3.org/2000/svg">
<path d="M25.3192 16.905L27.5845 18.63C28.0076 18.957 28.1227 19.532 27.8597 20L25.4937 23.99C25.3089 24.32 24.9423 24.532 24.5438 24.532C24.4052 24.532 24.2707 24.507 24.1413 24.458L21.461 23.41C20.925 23.782 20.3971 24.081 19.859 24.318L19.4514 27.088C19.3856 27.604 18.9174 28 18.3638 28H13.64C13.0855 28 12.6182 27.604 12.5515 27.078L12.1449 24.318C11.5893 24.074 11.0522 23.77 10.5408 23.411L7.86773 24.456C7.30294 24.658 6.75663 24.426 6.50502 23.979L4.14926 20.01C3.88123 19.532 3.99522 18.957 4.41627 18.632L6.68371 16.906C6.6478 16.568 6.63032 16.2751 6.63032 16C6.63032 15.725 6.64775 15.432 6.68371 15.095L4.41834 13.37C3.98805 13.038 3.87305 12.443 4.15133 11.985L6.51013 8.011C6.75967 7.56498 7.36041 7.35302 7.86262 7.54202L10.5429 8.59C11.0779 8.21903 11.6067 7.91903 12.1449 7.68302L12.5525 4.912C12.6183 4.396 13.0855 4 13.639 4H18.3628C18.9163 4 19.3846 4.396 19.4514 4.92002L19.858 7.681C20.4136 7.924 20.9507 8.22798 21.4631 8.58798L24.1362 7.543C24.6958 7.342 25.2473 7.57202 25.4989 8.02L27.8546 11.989C28.1227 12.468 28.0077 13.043 27.5866 13.367L25.3192 15.093C25.3489 15.359 25.3726 15.67 25.3726 15.999C25.3726 16.328 25.3479 16.639 25.3192 16.905Z" stroke="#3C3C3C" stroke-width="2.5"/>
<circle cx="16" cy="16" r="4" stroke="#3C3C3C" stroke-width="2.5"/>
</svg>
