<svg width="142" height="40" viewBox="0 0 142 40" fill="none" xmlns="http://www.w3.org/2000/svg">
<path fill-rule="evenodd" clip-rule="evenodd" d="M18.8328 0L0 40H123.167L142 0H18.8328Z" fill="#1212C4"/>
<path fill-rule="evenodd" clip-rule="evenodd" d="M20.842 30.3287L30.5683 9.67078H24.5847L14.8584 30.3287H20.842Z" fill="white"/>
<path fill-rule="evenodd" clip-rule="evenodd" d="M24.5862 9.67108L22.0571 15.0421H31.6642L34.1932 9.67108H24.5862Z" fill="white"/>
<path fill-rule="evenodd" clip-rule="evenodd" d="M33.0598 30.3287L42.7861 9.67078H36.8025L27.0762 30.3287H33.0598Z" fill="white"/>
<path fill-rule="evenodd" clip-rule="evenodd" d="M41.341 30.3287L51.0673 9.67078H45.0837L35.3574 30.3287H41.341Z" fill="white"/>
<path fill-rule="evenodd" clip-rule="evenodd" d="M29.6047 24.9577L27.0757 30.3287H41.3395L43.8679 24.9577H29.6047Z" fill="white"/>
<path fill-rule="evenodd" clip-rule="evenodd" d="M49.9338 30.3287L59.6601 9.67078H53.6765L43.9502 30.3287H49.9338Z" fill="white"/>
<path fill-rule="evenodd" clip-rule="evenodd" d="M58.2151 30.3287L67.9408 9.67078H61.9578L52.2314 30.3287H58.2151Z" fill="white"/>
<path fill-rule="evenodd" clip-rule="evenodd" d="M53.6775 9.67108L51.1484 15.0421H65.4122L67.9407 9.67108H53.6775Z" fill="white"/>
<path fill-rule="evenodd" clip-rule="evenodd" d="M75.0886 30.3287L84.8149 9.67078H78.8313L69.105 30.3287H75.0886Z" fill="white"/>
<path fill-rule="evenodd" clip-rule="evenodd" d="M70.5515 9.67108L68.0225 15.0421H82.2857L84.8147 9.67108H70.5515Z" fill="white"/>
<path fill-rule="evenodd" clip-rule="evenodd" d="M63.3528 24.9577L60.8237 30.3287H75.0869L77.616 24.9577H63.3528Z" fill="white"/>
<path fill-rule="evenodd" clip-rule="evenodd" d="M66.9503 17.3143L64.4219 22.6853H78.6851L81.2135 17.3143H66.9503Z" fill="white"/>
<path fill-rule="evenodd" clip-rule="evenodd" d="M83.6818 30.3287L93.4076 9.67078H87.4246L77.6982 30.3287H83.6818Z" fill="white"/>
<path fill-rule="evenodd" clip-rule="evenodd" d="M80.2262 24.9577L77.6978 30.3287H91.9609L94.4894 24.9577H80.2262Z" fill="white"/>
<path fill-rule="evenodd" clip-rule="evenodd" d="M83.8243 17.3143L81.2959 22.6853H95.5591L98.0875 17.3143H83.8243Z" fill="white"/>
<path fill-rule="evenodd" clip-rule="evenodd" d="M100.555 30.3287L110.282 9.67078H104.298L94.5718 30.3287H100.555Z" fill="white"/>
<path fill-rule="evenodd" clip-rule="evenodd" d="M109.031 30.3287L118.758 9.67078H112.774L103.048 30.3287H109.031Z" fill="white"/>
<path fill-rule="evenodd" clip-rule="evenodd" d="M112.776 9.67108L110.247 15.0421H124.51L127.039 9.67108H112.776Z" fill="white"/>
<path fill-rule="evenodd" clip-rule="evenodd" d="M105.577 24.9577L103.048 30.3287H117.312L119.84 24.9577H105.577Z" fill="white"/>
<path fill-rule="evenodd" clip-rule="evenodd" d="M109.175 17.3143L106.646 22.6853H120.909L123.438 17.3143H109.175Z" fill="white"/>
<path fill-rule="evenodd" clip-rule="evenodd" d="M74.0051 15.0421L76.5341 9.67108H70.5499L68.0215 15.0421H74.0051Z" fill="white"/>
<path fill-rule="evenodd" clip-rule="evenodd" d="M66.9514 17.3143L60.8237 30.3285H66.8079L72.935 17.3143H66.9514Z" fill="white"/>
<path fill-rule="evenodd" clip-rule="evenodd" d="M92.1062 17.3143L85.9785 30.3285H91.9621L98.0898 17.3143H92.1062Z" fill="white"/>
<path fill-rule="evenodd" clip-rule="evenodd" d="M113.858 24.9577L111.329 30.3287H117.313L119.841 24.9577H113.858Z" fill="white"/>
<path fill-rule="evenodd" clip-rule="evenodd" d="M120.911 22.6853L127.039 9.67108H121.055L114.928 22.6853H120.911Z" fill="white"/>
</svg>
