<svg width="48" height="48" viewBox="0 0 48 48" fill="none" xmlns="http://www.w3.org/2000/svg">
<path d="M11 8H41V40H11V8Z" fill="#E6EBFF"/>
<path d="M26.2634 28L25.2371 29.0939L26.3914 30.1768L27.4108 28.9662L26.2634 28ZM34.1474 20.9662L35.1136 19.8188L32.8188 17.8864L31.8526 19.0338L34.1474 20.9662ZM20.9737 25.0939L25.2371 29.0939L27.2898 26.9061L23.0263 22.9061L20.9737 25.0939ZM27.4108 28.9662L34.1474 20.9662L31.8526 19.0338L25.1161 27.0338L27.4108 28.9662Z" fill="#0132FD"/>
<rect x="7" y="13" width="8" height="4" fill="#CCD6FF"/>
<rect x="7" y="22" width="8" height="4" fill="#CCD6FF"/>
<rect x="7" y="31" width="8" height="4" fill="#CCD6FF"/>
</svg>
