<svg width="32" height="32" viewBox="0 0 32 32" fill="none" xmlns="http://www.w3.org/2000/svg">
<path d="M6.53873 21.6144L7.50025 21.8892L7.61881 21.4742L7.39823 21.1033L6.53873 21.6144ZM5.4945 25.2693L4.53297 24.9945H4.53297L5.4945 25.2693ZM6.73074 26.5055L7.00546 27.467L7.00546 27.467L6.73074 26.5055ZM10.3856 25.4613L10.8967 24.6018L10.5258 24.3812L10.1108 24.4997L10.3856 25.4613ZM26 16C26 21.5228 21.5228 26 16 26V28C22.6274 28 28 22.6274 28 16H26ZM16 6C21.5228 6 26 10.4772 26 16H28C28 9.37258 22.6274 4 16 4V6ZM6 16C6 10.4772 10.4772 6 16 6V4C9.37258 4 4 9.37258 4 16H6ZM7.39823 21.1033C6.51024 19.6101 6 17.8662 6 16H4C4 18.2358 4.61241 20.3317 5.67923 22.1256L7.39823 21.1033ZM5.57721 21.3397L4.53297 24.9945L6.45602 25.544L7.50025 21.8892L5.57721 21.3397ZM4.53297 24.9945C4.10192 26.5032 5.49676 27.8981 7.00546 27.467L6.45602 25.544H6.45602L4.53297 24.9945ZM7.00546 27.467L10.6603 26.4228L10.1108 24.4997L6.45602 25.544L7.00546 27.467ZM16 26C14.1338 26 12.3899 25.4898 10.8967 24.6018L9.87442 26.3208C11.6683 27.3876 13.7642 28 16 28V26Z" fill="#3C3C3C"/>
<path fill-rule="evenodd" clip-rule="evenodd" d="M12.5 16.25C12.5 16.9404 11.9404 17.5 11.25 17.5C10.5596 17.5 10 16.9404 10 16.25C10 15.5596 10.5596 15 11.25 15C11.9404 15 12.5 15.5596 12.5 16.25ZM17.1154 16.25C17.1154 16.9404 16.5558 17.5 15.8654 17.5C15.175 17.5 14.6154 16.9404 14.6154 16.25C14.6154 15.5596 15.175 15 15.8654 15C16.5558 15 17.1154 15.5596 17.1154 16.25ZM20.4808 17.5C21.1711 17.5 21.7308 16.9404 21.7308 16.25C21.7308 15.5596 21.1711 15 20.4808 15C19.7904 15 19.2308 15.5596 19.2308 16.25C19.2308 16.9404 19.7904 17.5 20.4808 17.5Z" fill="#3C3C3C"/>
</svg>
